# xmcd
#
# Track frame offsets: 
#        150
#        14867
#        29188
#        43289
#        57628
#        70267
#        83709
#        96878
#        108837
#        121761
#        134982
#        148295
#        160416
#        174530
#        188804
#        203315
#        217026
#        229872
#
# Disc length: 3235 seconds
#
# Revision: 3
# Processed by: cddbd v1.5PL3 Copyright (c) Steve Scherf et al.
# Submitted via: ExactAudioCopy v0.95a4
#
DISCID=1a0ca112
DTITLE=Charley Patton - The Definitive Charley Patton [CDThree)
DYEAR=2001
DGENRE=Blues
TTITLE0=Moon Going Down
TTITLE1=Bird Nest Bound
TTITLE2=Jersey Bull Blues
TTITLE3=High Sheriff Blues
TTITLE4=Stone Pony Blues
TTITLE5=34 Blues
TTITLE6=Love My Stuff
TTITLE7=Revenue Man Blues
TTITLE8=Oh Death
TTITLE9=Troubled 'Bout My Mother
TTITLE10=Poor Me
TTITLE11=Hang It On The Wall
TTITLE12=Farrell Blues
TTITLE13=Come Back Corrina
TTITLE14=Tell Me Man Blues
TTITLE15=Be True, Be True Blues
TTITLE16=Yellow Bee
TTITLE17=Mind Reader Blues
EXTD=Volume 3 of a 3-CD set.
EXTT0=
EXTT1=
EXTT2=
EXTT3=
EXTT4=
EXTT5=
EXTT6=
EXTT7=
EXTT8=
EXTT9=
EXTT10=
EXTT11=
EXTT12=
EXTT13=
EXTT14=
EXTT15=
EXTT16=
EXTT17=
PLAYORDER=
